<svg width="98" height="49.88" viewBox="0 0 112 57" fill="none" xmlns="http://www.w3.org/2000/svg">
<g clip-path="url(#clip0_76_86)">
<mask id="mask0_76_86" style="mask-type:luminance" maskUnits="userSpaceOnUse" x="0" y="0" width="38" height="57">
<path d="M38 0H0V57H38V0Z" fill="white"/>
</mask>
<g mask="url(#mask0_76_86)">
<path d="M19 28.5C19 25.9804 20.0009 23.5641 21.7825 21.7825C23.5641 20.0009 25.9804 19 28.5 19C31.0196 19 33.4359 20.0009 35.2175 21.7825C36.9991 23.5641 38 25.9804 38 28.5C38 31.0196 36.9991 33.4359 35.2175 35.2175C33.4359 36.9991 31.0196 38 28.5 38C25.9804 38 23.5641 36.9991 21.7825 35.2175C20.0009 33.4359 19 31.0196 19 28.5Z" fill="#1ABCFE"/>
<path d="M0 47.5C0 44.9804 1.00089 42.5641 2.78249 40.7825C4.56408 39.0009 6.98044 38 9.5 38H19V47.5C19 50.0196 17.9991 52.4359 16.2175 54.2175C14.4359 55.9991 12.0196 57 9.5 57C6.98044 57 4.56408 55.9991 2.78249 54.2175C1.00089 52.4359 0 50.0196 0 47.5Z" fill="#0ACF83"/>
<path d="M19 0V19H28.5C31.0196 19 33.4359 17.9991 35.2175 16.2175C36.9991 14.4359 38 12.0196 38 9.5C38 6.98044 36.9991 4.56408 35.2175 2.78249C33.4359 1.00089 31.0196 0 28.5 0H19Z" fill="#FF7262"/>
<path d="M0 9.5C0 12.0196 1.00089 14.4359 2.78249 16.2175C4.56408 17.9991 6.98044 19 9.5 19H19V0H9.5C6.98044 0 4.56408 1.00089 2.78249 2.78249C1.00089 4.56408 0 6.98044 0 9.5Z" fill="#F24E1E"/>
<path d="M0 28.5C0 31.0196 1.00089 33.4359 2.78249 35.2175C4.56408 36.9991 6.98044 38 9.5 38H19V19H9.5C6.98044 19 4.56408 20.0009 2.78249 21.7825C1.00089 23.5641 0 25.9804 0 28.5Z" fill="#A259FF"/>
</g>
</g>
<g clip-path="url(#clip1_76_86)">
<path d="M72.5 5H103.5C108.2 5 112 8.89744 112 13.7179V44.2821C112 49.1026 108.2 53 103.5 53H72.5C67.8 53 64 49.1026 64 44.2821V13.7179C64 8.89744 67.8 5 72.5 5Z" fill="#470137"/>
<path d="M89.2478 19.0956L83.2478 29.2494L89.6478 40.0187C89.6878 40.1007 89.7078 40.1828 89.6878 40.2648C89.6678 40.3469 89.5878 40.2853 89.4678 40.3058H84.8878C84.5678 40.3058 84.3478 40.2853 84.2078 40.0802C83.7878 39.2187 83.3478 38.3776 82.9278 37.5161C82.5078 36.6751 82.0478 35.8135 81.5678 34.9315C81.0878 34.0494 80.6078 33.1674 80.1278 32.2648H80.0878C79.6678 33.1469 79.2078 34.0289 78.7478 34.911C78.2878 35.793 77.8278 36.6751 77.3878 37.5366C76.9278 38.3982 76.4678 39.2802 76.0078 40.1212C75.9278 40.3264 75.7678 40.3469 75.5478 40.3469H71.1478C71.0678 40.3469 71.0078 40.3879 71.0078 40.2853C70.9878 40.2033 71.0078 40.1212 71.0478 40.0597L77.2678 29.5982L71.2078 19.0751C71.1478 18.993 71.1278 18.911 71.1678 18.87C71.2078 18.8084 71.2878 18.7879 71.3678 18.7879H75.9078C76.0078 18.7879 76.1078 18.8084 76.1878 18.8289C76.2678 18.87 76.3278 18.9315 76.3878 19.0135C76.7678 19.8956 77.2078 20.7776 77.6678 21.6597C78.1478 22.5417 78.6078 23.4033 79.1078 24.2648C79.5878 25.1264 80.0278 25.9879 80.4478 26.87H80.4878C80.9078 25.9674 81.3478 25.0853 81.7878 24.2238C82.2278 23.3623 82.6878 22.5007 83.1478 21.6392C83.6078 20.7776 84.0478 19.8956 84.4878 19.0546C84.5078 18.9725 84.5478 18.8905 84.6078 18.8494C84.6878 18.8084 84.7678 18.7879 84.8678 18.8084H89.0878C89.1878 18.7879 89.2878 18.8494 89.3078 18.952C89.3278 18.9725 89.2878 19.0546 89.2478 19.0956Z" fill="#FF61F6"/>
<path d="M98.4878 40.7365C97.0078 40.757 95.5278 40.4493 94.1878 39.8134C92.9278 39.2186 91.8878 38.234 91.1678 37.0237C90.4278 35.7724 90.0678 34.2134 90.0678 32.3468C90.0478 30.8288 90.4278 29.3314 91.1678 28.0186C91.9278 26.6852 93.0278 25.5775 94.3478 24.8391C95.7478 24.0391 97.4278 23.6493 99.4078 23.6493C99.5078 23.6493 99.6478 23.6493 99.8278 23.6699C100.008 23.6904 100.208 23.6904 100.448 23.7109V17.2288C100.448 17.0852 100.508 17.0032 100.648 17.0032H104.708C104.808 16.9827 104.888 17.0647 104.908 17.1468V36.716C104.908 37.0852 104.928 37.4955 104.948 37.9468C104.988 38.3775 105.008 38.7878 105.028 39.1365C105.028 39.2801 104.968 39.4032 104.828 39.4647C103.788 39.916 102.688 40.2442 101.568 40.4493C100.548 40.634 99.5278 40.7365 98.4878 40.7365ZM100.448 36.634V27.6083C100.268 27.5673 100.088 27.5263 99.9078 27.5058C99.6878 27.4852 99.4678 27.4647 99.2478 27.4647C98.4678 27.4647 97.6878 27.6288 96.9878 27.9981C96.3078 28.3468 95.7278 28.8596 95.2878 29.516C94.8478 30.1724 94.6278 31.0545 94.6278 32.1211C94.6078 32.8391 94.7278 33.557 94.9678 34.234C95.1678 34.7878 95.4678 35.2801 95.8678 35.6904C96.2478 36.0596 96.7078 36.3468 97.2278 36.5109C97.7678 36.6955 98.3278 36.7775 98.8878 36.7775C99.1878 36.7775 99.4678 36.757 99.7278 36.7365C99.9878 36.757 100.208 36.716 100.448 36.634Z" fill="#FF61F6"/>
</g>
<defs>
<clipPath id="clip0_76_86">
<rect width="38" height="57" fill="white"/>
</clipPath>
<clipPath id="clip1_76_86">
<rect width="48" height="48" fill="white" transform="translate(64 5)"/>
</clipPath>
</defs>
</svg>
