<svg width="66" height="66" viewBox="0 0 66 66" fill="none" xmlns="http://www.w3.org/2000/svg">
<path d="M32.5262 8.00046C30.0618 8.01105 27.7085 8.20554 25.6377 8.54462C19.5376 9.5419 18.4301 11.6293 18.4301 15.4788V20.5628H32.8454V22.2575H18.4301H13.0202C8.83067 22.2575 5.16224 24.5877 4.0148 29.0207C2.69125 34.1018 2.63254 37.2725 4.0148 42.5781C5.03949 46.5273 7.48659 49.3412 11.6761 49.3412H16.6324V43.2466C16.6324 38.8436 20.7491 34.9598 25.6377 34.9598H40.0362C44.0442 34.9598 47.2439 31.9059 47.2439 28.1811V15.4788C47.2439 11.8637 43.9482 9.14797 40.0362 8.54462C37.5599 8.16316 34.9905 7.98986 32.5262 8.00046ZM24.7305 12.0894C26.2195 12.0894 27.4354 13.2331 27.4354 14.6392C27.4354 16.0404 26.2195 17.1735 24.7305 17.1735C23.2361 17.1735 22.0255 16.0404 22.0255 14.6392C22.0255 13.2331 23.2361 12.0894 24.7305 12.0894Z" fill="url(#paint0_linear_74_30)"/>
<path d="M49.0416 22.2574V28.181C49.0416 32.7735 44.8341 36.6389 40.0362 36.6389H25.6378C21.6938 36.6389 18.4301 39.7625 18.4301 43.4176V56.1199C18.4301 59.735 21.8272 61.8614 25.6378 62.8986C30.2008 64.1402 34.5766 64.3646 40.0362 62.8986C43.6653 61.9262 47.2439 59.9694 47.2439 56.1199V51.0358H32.8454V49.3412H47.2439H54.4515C58.641 49.3412 60.2022 46.6369 61.6592 42.578C63.1642 38.3994 63.1001 34.381 61.6592 29.0206C60.6238 25.1611 58.6463 22.2574 54.4515 22.2574H49.0416ZM40.9435 54.4252C42.4378 54.4252 43.6485 55.5583 43.6485 56.9594C43.6485 58.3656 42.4378 59.5092 40.9435 59.5092C39.4545 59.5092 38.2385 58.3656 38.2385 56.9594C38.2385 55.5583 39.4545 54.4252 40.9435 54.4252Z" fill="url(#paint1_linear_74_30)"/>
<defs>
<linearGradient id="paint0_linear_74_30" x1="3" y1="8" x2="34.0489" y2="36.5912" gradientUnits="userSpaceOnUse">
<stop stop-color="#5A9FD4"/>
<stop offset="1" stop-color="#306998"/>
</linearGradient>
<linearGradient id="paint1_linear_74_30" x1="40.5971" y1="56.532" x2="29.8647" y2="40.2802" gradientUnits="userSpaceOnUse">
<stop stop-color="#FFD43B"/>
<stop offset="1" stop-color="#FFE873"/>
</linearGradient>
</defs>
</svg>
